<?xml version="1.0" encoding="UTF-8"?>
<!DOCTYPE svg PUBLIC "-//W3C//DTD SVG 1.1//EN" "http://www.w3.org/Graphics/SVG/1.1/DTD/svg11.dtd">
<svg version="1.1" xmlns="http://www.w3.org/2000/svg" xmlns:xlink="http://www.w3.org/1999/xlink" x="0" y="0" width="350" height="350" viewBox="0, 0, 350, 350">
  <g id="Background">
    <rect x="0" y="0" width="350" height="350" fill="#000000" fill-opacity="0"/>
  </g>
  <g id="Layer_1">
    <path d="M139.5,31.5 L139.5,139.5" fill-opacity="0" stroke="#000000" stroke-width="10" stroke-linecap="square"/>
    <path d="M139.5,139.5 C283.5,139.5 283.5,319.5 139.5,319.5 C139.5,319.5 103.5,319.5 103.5,319.5" fill-opacity="0" stroke="#000000" stroke-width="10" stroke-linecap="square"/>
    <path d="M103.5,31.5 L103.5,175.5" fill-opacity="0" stroke="#000000" stroke-width="10" stroke-linecap="square"/>
    <path d="M103.5,175.5 C139.5,175.5 139.5,175.5 139.5,175.5 C235.5,175.5 235.5,283.5 139.5,283.5 C139.5,283.5 139.5,283.5 103.5,283.5" fill-opacity="0" stroke="#000000" stroke-width="10" stroke-linecap="square"/>
    <path d="M175.5,31.5 C175.5,31.5 175.5,211.5 175.5,211.5 C175.5,235.5 163.5,247.5 127.5,247.5 C127.5,247.5 103.5,247.5 103.5,247.5" fill-opacity="0" stroke="#000000" stroke-width="10" stroke-linecap="square"/>
  </g>
</svg>
